<svg version="1.1" id="Layer_1" xmlns="http://www.w3.org/2000/svg" xmlns:xlink="http://www.w3.org/1999/xlink" x="0px" y="0px"
	 width="100%" viewBox="0 0 1024 1024" enable-background="new 0 0 1024 1024" xml:space="preserve">
<path fill="#EFEFEF" opacity="1.000000" stroke="none" 
	d="
M574.000000,1025.000000 
	C382.666656,1025.000000 191.833328,1025.000000 1.000000,1025.000000 
	C1.000000,683.666687 1.000000,342.333344 1.000000,1.000000 
	C342.333344,1.000000 683.666687,1.000000 1025.000000,1.000000 
	C1025.000000,342.333344 1025.000000,683.666687 1025.000000,1025.000000 
	C874.833313,1025.000000 724.666687,1025.000000 574.000000,1025.000000 
M324.303894,263.886963 
	C324.098450,264.199188 323.893036,264.511414 323.856384,264.824615 
	C323.856384,264.824615 323.806366,264.663452 323.260498,264.806488 
	C323.048187,265.097137 322.835846,265.387817 322.776825,265.680725 
	C322.776825,265.680725 322.648773,265.596436 322.134491,265.766266 
	C321.954559,266.066803 321.774658,266.367340 321.739349,266.740509 
	C321.739349,266.740509 321.654053,266.602966 321.134430,266.786163 
	C320.959259,267.098694 320.784119,267.411255 320.760376,267.750092 
	C320.760376,267.750092 320.706268,267.606262 320.180145,267.769501 
	C319.986816,268.066406 319.793488,268.363312 319.810242,268.740784 
	C319.810242,268.740784 319.636322,268.598053 319.119965,268.785309 
	C318.951324,269.099152 318.782715,269.412964 318.752716,269.766541 
	C318.752716,269.766541 318.712616,269.627960 318.172516,269.808960 
	C317.999634,270.135376 317.826752,270.461823 317.813263,270.800995 
	C317.813263,270.800995 317.763092,270.649200 317.149963,270.862335 
	C316.641571,271.548981 316.133209,272.235626 315.091248,273.284973 
	C310.361328,281.530334 305.631409,289.775726 300.190063,298.182922 
	C299.127625,302.592926 297.167419,306.997864 297.142456,311.413727 
	C296.908173,352.873322 296.992859,394.334869 297.047913,435.795715 
	C297.050201,437.530518 297.667847,439.264496 298.211212,441.405334 
	C298.392792,441.662689 298.629303,441.851105 299.353058,442.526031 
	C300.990234,443.322235 302.621185,444.131531 304.265472,444.912659 
	C332.814667,458.474304 351.319122,486.488647 346.726776,520.845581 
	C343.018402,548.589233 327.087067,567.967712 300.626495,579.106628 
	C300.103912,579.481079 299.581329,579.855530 299.063843,580.624023 
	C299.063843,580.624023 298.905457,580.984924 298.495575,581.008240 
	C298.495575,581.008240 298.085083,581.013123 297.478241,581.588257 
	C297.320618,582.559021 297.025635,583.529785 297.025146,584.500610 
	C297.003235,626.932556 296.997925,669.364563 297.050293,711.796448 
	C297.052032,713.197205 297.671356,714.597229 298.038971,716.564148 
	C298.317810,717.030273 298.596649,717.496399 299.081970,718.579407 
	C299.136169,719.008606 299.190338,719.437866 298.714081,720.256714 
	C299.404205,721.832153 300.094330,723.407593 301.027039,725.711426 
	C311.523895,756.274719 333.450531,774.078003 364.277039,782.931335 
	C365.978363,783.284363 367.678833,783.939819 369.381165,783.944702 
	C392.880341,784.012756 416.379791,783.992004 439.879150,783.991699 
	C515.710449,783.990784 591.541748,784.001831 667.372986,783.914978 
	C669.246826,783.912842 671.119324,782.823853 673.624268,782.033997 
	C674.060547,781.965637 674.496765,781.897278 675.712463,781.916016 
	C676.668152,781.656128 677.631287,781.420776 678.578491,781.132935 
	C711.089722,771.253357 733.275940,751.456909 740.926636,716.750854 
	C741.282776,714.716309 741.949280,712.681885 741.950439,710.647156 
	C742.002747,621.037720 741.996765,531.428345 741.996826,441.818909 
	C741.996826,398.346680 742.052856,354.874207 741.872864,311.402710 
	C741.859863,308.270172 740.119019,305.144745 738.941284,301.275726 
	C737.768005,298.113251 736.594727,294.950775 735.539307,291.712128 
	C735.539307,291.712128 735.539062,291.571838 735.384766,290.895142 
	C734.312439,288.862183 733.240112,286.829224 732.135925,284.916962 
	C732.135925,284.916962 732.260681,284.911957 732.154724,284.291260 
	C731.805603,283.808685 731.456543,283.326111 731.086975,282.935211 
	C731.086975,282.935211 731.173279,282.898193 731.022522,282.279510 
	C730.404175,281.449829 729.785828,280.620117 729.127686,279.909912 
	C729.127686,279.909912 729.253540,279.913391 729.127686,279.314423 
	C728.757751,278.861938 728.387756,278.409454 727.995422,277.997986 
	C727.995422,277.997986 728.040527,277.985596 727.889587,277.355591 
	C726.941345,276.208466 725.993042,275.061340 725.018433,273.982025 
	C725.018433,273.982025 725.091064,273.977539 724.939392,273.441772 
	C724.655701,273.225616 724.371948,273.009430 724.113464,272.905731 
	C724.113464,272.905731 724.215088,272.851288 724.010437,272.240448 
	C723.008850,271.139282 722.007202,270.038086 720.818237,268.402344 
	C720.245056,267.929626 719.671875,267.456909 718.847412,266.410309 
	C718.063477,265.782104 717.279602,265.153931 716.468811,264.638611 
	C716.468811,264.638611 716.420898,264.532928 716.225708,264.055206 
	C715.929260,263.896423 715.632874,263.737640 715.203857,263.674042 
	C715.203857,263.674042 715.366150,263.656769 715.136963,263.146057 
	C714.792969,263.011749 714.448975,262.877472 714.088440,262.902252 
	C714.088440,262.902252 714.247742,262.887970 714.083008,262.332214 
	C713.771118,262.125153 713.459229,261.918091 713.162903,261.837006 
	C713.162903,261.837006 713.272461,261.772919 713.001648,261.238312 
	C712.343079,260.807251 711.684448,260.376190 711.005920,260.001587 
	C711.005920,260.001587 711.062317,259.981445 710.864807,259.512146 
	C710.572510,259.374878 710.280273,259.237610 709.821655,258.867950 
	C709.821655,258.867950 709.536194,258.880798 709.140259,258.305145 
	C707.790833,257.483368 706.441406,256.661621 705.053650,255.925323 
	C705.053650,255.925323 705.144409,255.902100 704.870178,255.349197 
	C704.312866,255.104568 703.755554,254.859940 703.150513,254.729401 
	C703.150513,254.729401 703.264771,254.682022 702.894775,254.173630 
	C701.959961,253.727097 701.025208,253.280563 700.062500,252.918243 
	C700.062500,252.918243 700.149658,252.901627 699.830444,252.364914 
	C699.243591,252.162048 698.656799,251.959198 698.078857,251.884476 
	C698.078857,251.884476 698.200623,251.843445 697.881104,251.293823 
	C697.276245,251.114014 696.671387,250.934204 696.067078,250.880524 
	C696.067078,250.880524 696.189026,250.848343 695.775269,250.272705 
	C693.531494,249.446808 691.287781,248.620911 689.049988,247.911469 
	C689.049988,247.911469 689.162842,247.881958 688.739075,247.289307 
	C685.747498,246.246719 682.755981,245.204132 680.118530,243.686584 
	C678.031006,243.124634 675.943787,242.072754 673.855835,242.071075 
	C573.994629,241.990570 474.133423,241.996460 374.272186,242.037308 
	C372.518250,242.038025 370.764465,242.582764 368.277069,243.026932 
	C367.125458,243.321304 365.973846,243.615662 364.379395,243.847580 
	C364.379395,243.847580 363.979828,243.646729 363.853088,243.143066 
	C363.241882,243.337875 362.630676,243.532684 361.436432,243.983719 
	C360.919922,244.298843 360.403412,244.613953 359.969299,244.954132 
	C359.969299,244.954132 359.981659,244.868942 359.281799,244.898941 
	C358.461792,245.215698 357.641815,245.532455 356.939117,245.874115 
	C356.939117,245.874115 356.932343,245.754379 356.149109,245.854248 
	C352.740204,247.220459 349.331268,248.586655 345.986969,249.983368 
	C345.986969,249.983368 345.984955,249.911972 345.377228,249.984787 
	C344.886993,250.305618 344.396729,250.626450 343.974548,250.979538 
	C343.974548,250.979538 343.969696,250.904343 343.439331,250.963181 
	C343.184875,251.174591 342.930420,251.386002 342.634064,251.485153 
	C342.634064,251.485153 342.514343,251.480225 341.890442,251.677048 
	C340.212769,252.755142 338.535095,253.833221 336.950012,254.929031 
	C336.950012,254.929031 336.947479,254.834824 336.316345,254.969727 
	C335.484558,255.603027 334.652771,256.236328 333.926514,256.890381 
	C333.926514,256.890381 333.916595,256.783264 333.286407,256.925262 
	C332.482758,257.592285 331.679108,258.259308 330.954712,258.946075 
	C330.954712,258.946075 330.958191,258.864471 330.420227,259.028839 
	C330.204590,259.318420 329.988922,259.608002 329.923828,259.893433 
	C329.923828,259.893433 329.890472,259.746521 329.264862,259.898254 
	C328.473083,260.577789 327.681335,261.257294 326.964020,261.958923 
	C326.964020,261.958923 326.966125,261.881287 326.437195,262.051147 
	C326.233246,262.346741 326.029327,262.642334 325.949280,262.944275 
	C325.949280,262.944275 325.938049,262.820740 325.392212,262.988647 
	C325.171967,263.280487 324.951721,263.572327 324.889923,263.871948 
	C324.889923,263.871948 324.858582,263.716431 324.303894,263.886963 
z"/>
<path fill="#0184FE" opacity="1.000000" stroke="none" 
	d="
M301.313110,579.094971 
	C327.087067,567.967712 343.018402,548.589233 346.726776,520.845581 
	C351.319122,486.488647 332.814667,458.474304 304.265472,444.912659 
	C302.621185,444.131531 300.990234,443.322235 299.239624,442.263489 
	C299.126160,442.000916 299.333740,442.004547 299.536377,441.647339 
	C299.821716,440.799591 299.977142,440.308990 299.976898,439.818451 
	C299.955139,395.159576 299.921448,350.500702 299.899353,305.895691 
	C299.910156,305.949554 299.800323,305.947479 300.084839,305.785950 
	C300.332764,304.432251 300.296234,303.240082 300.261017,301.704865 
	C300.475372,300.248230 300.688416,299.134674 300.901489,298.021088 
	C305.631409,289.775726 310.361328,281.530334 315.690674,273.020477 
	C316.781097,272.053711 317.272095,271.351471 317.763092,270.649200 
	C317.763092,270.649200 317.813263,270.800995 318.027313,270.730530 
	C318.398438,270.316071 318.555542,269.972015 318.712646,269.627960 
	C318.712616,269.627960 318.752716,269.766541 318.984192,269.704773 
	C319.355865,269.294708 319.496124,268.946381 319.636353,268.598053 
	C319.636322,268.598053 319.810242,268.740784 320.009338,268.685120 
	C320.374390,268.288361 320.540314,267.947327 320.706268,267.606262 
	C320.706268,267.606262 320.760376,267.750092 320.986633,267.697510 
	C321.359955,267.297577 321.506989,266.950256 321.654053,266.602966 
	C321.654053,266.602966 321.739349,266.740509 321.971985,266.687073 
	C322.352661,266.287903 322.500702,265.942169 322.648743,265.596436 
	C322.648773,265.596436 322.776825,265.680725 323.000519,265.662170 
	C323.418274,265.316895 323.612335,264.990173 323.806366,264.663452 
	C323.806366,264.663452 323.856384,264.824615 324.058868,264.753632 
	C324.460419,264.360565 324.659515,264.038513 324.858582,263.716431 
	C324.858582,263.716431 324.889923,263.871948 325.086121,263.792725 
	C325.500885,263.415924 325.719452,263.118317 325.938049,262.820740 
	C325.938049,262.820740 325.949280,262.944275 326.142273,262.843414 
	C326.545563,262.455475 326.755829,262.168365 326.966125,261.881287 
	C326.966125,261.881287 326.964020,261.958923 327.269592,261.938293 
	C328.346954,261.193970 329.118713,260.470245 329.890472,259.746521 
	C329.890472,259.746521 329.923828,259.893433 330.115173,259.813324 
	C330.523743,259.443634 330.740967,259.154053 330.958191,258.864471 
	C330.958191,258.864471 330.954712,258.946075 331.257965,258.929962 
	C332.346344,258.203644 333.131470,257.493469 333.916595,256.783264 
	C333.916595,256.783264 333.926514,256.890381 334.219238,256.894958 
	C335.323792,256.211334 336.135651,255.523087 336.947479,254.834839 
	C336.947479,254.834824 336.950012,254.929031 337.276764,254.913666 
	C339.240448,253.758942 340.877411,252.619583 342.514343,251.480225 
	C342.514343,251.480225 342.634064,251.485153 342.929749,251.572479 
	C343.473541,251.407974 343.721619,251.156158 343.969696,250.904327 
	C343.969696,250.904343 343.974548,250.979538 344.253174,250.949341 
	C345.016174,250.583420 345.500580,250.247696 345.984955,249.911972 
	C345.984955,249.911972 345.986969,249.983368 346.348022,249.974060 
	C350.116852,248.561279 353.524597,247.157822 356.932343,245.754379 
	C356.932343,245.754379 356.939117,245.874115 357.241608,245.905151 
	C358.356628,245.580444 359.169128,245.224686 359.981659,244.868927 
	C359.981659,244.868942 359.969299,244.954132 360.405396,244.965576 
	C397.317627,244.984070 433.793762,244.993866 470.269928,244.997391 
	C506.912750,245.000946 543.568176,244.399353 580.194885,245.167450 
	C616.517334,245.929153 652.979614,241.697479 689.162842,247.881958 
	C689.162842,247.881958 689.049988,247.911469 689.218567,248.168304 
	C691.654419,249.232880 693.921753,250.040604 696.189026,250.848328 
	C696.189026,250.848343 696.067078,250.880524 696.215698,251.114899 
	C696.976379,251.513992 697.588501,251.678711 698.200623,251.843445 
	C698.200623,251.843445 698.078857,251.884476 698.218262,252.113892 
	C698.955017,252.529404 699.552368,252.715515 700.149658,252.901627 
	C700.149658,252.901627 700.062500,252.918243 700.108582,253.249023 
	C701.191345,253.947205 702.228088,254.314621 703.264771,254.682037 
	C703.264771,254.682022 703.150513,254.729401 703.260986,254.995575 
	C703.962402,255.475204 704.553406,255.688660 705.144409,255.902100 
	C705.144409,255.902100 705.053650,255.925323 705.099304,256.255280 
	C706.608704,257.350433 708.072449,258.115601 709.536194,258.880798 
	C709.536194,258.880798 709.821655,258.867950 710.035767,259.184326 
	C710.472900,259.741852 710.743652,259.902100 711.062317,259.981445 
	C711.062317,259.981445 711.005920,260.001587 711.058960,260.314636 
	C711.832214,261.009430 712.552307,261.391174 713.272461,261.772888 
	C713.272461,261.772919 713.162903,261.837006 713.231445,262.056274 
	C713.615906,262.479675 713.931824,262.683807 714.247742,262.887970 
	C714.247742,262.887970 714.088440,262.902252 714.202026,263.097046 
	C714.665771,263.413452 715.015930,263.535095 715.366150,263.656769 
	C715.366150,263.656769 715.203857,263.674042 715.287476,263.932068 
	C715.721069,264.304352 716.070984,264.418640 716.420898,264.532928 
	C716.420898,264.532928 716.468811,264.638611 716.425049,264.937988 
	C717.287109,265.819672 718.192932,266.401947 719.098694,266.984222 
	C719.671875,267.456909 720.245056,267.929626 720.914551,269.045868 
	C722.078918,270.743347 723.147034,271.797333 724.215088,272.851288 
	C724.215088,272.851288 724.113464,272.905731 724.185242,273.109314 
	C724.535034,273.534454 724.813049,273.756012 725.091064,273.977539 
	C725.091064,273.977539 725.018433,273.982025 725.049622,274.302490 
	C726.067383,275.743835 727.053955,276.864716 728.040527,277.985596 
	C728.040527,277.985596 727.995422,277.997986 728.035400,278.292633 
	C728.468079,279.029327 728.860779,279.471375 729.253540,279.913391 
	C729.253540,279.913391 729.127686,279.909912 729.101929,280.227600 
	C729.775208,281.329620 730.474243,282.113892 731.173279,282.898193 
	C731.173279,282.898193 731.086975,282.935211 731.089661,283.219086 
	C731.481812,283.972626 731.871216,284.442322 732.260620,284.911987 
	C732.260681,284.911957 732.135925,284.916962 732.103516,285.243561 
	C733.227051,287.570709 734.383057,289.571259 735.539062,291.571838 
	C735.539062,291.571838 735.539307,291.712128 735.349915,292.144226 
	C736.444336,297.386292 737.728149,302.196259 739.008484,307.474274 
	C739.005005,441.859222 739.001160,575.776184 739.039917,709.693115 
	C739.040527,711.785828 739.565247,713.878479 739.932129,716.222778 
	C740.070923,716.643982 740.122986,716.813660 740.175110,716.983276 
	C733.275940,751.456909 711.089722,771.253357 678.578491,781.132935 
	C677.631287,781.420776 676.668152,781.656128 675.003296,781.618652 
	C672.976501,781.215393 671.658875,781.016785 670.341309,781.016602 
	C569.823730,781.001038 469.306183,780.997498 368.788605,781.031677 
	C367.182953,781.032227 365.577393,781.509583 364.051208,781.855469 
	C364.130585,781.946533 364.067352,782.179626 364.067352,782.179626 
	C333.450531,774.078003 311.523895,756.274719 300.953705,724.994446 
	C300.335083,722.807312 299.789825,721.337219 299.244537,719.867065 
	C299.190338,719.437866 299.136169,719.008606 299.044708,718.026123 
	C299.060425,717.312256 299.113373,717.151611 299.412140,716.660034 
	C299.771240,714.179443 299.982269,712.030029 299.983337,709.880432 
	C300.003937,668.767944 299.984924,627.655518 300.042145,586.543091 
	C300.045197,584.353516 300.648224,582.164734 301.058838,579.756042 
	C301.145721,579.536499 301.313110,579.094971 301.313110,579.094971 
M620.000000,417.002441 
	C620.000000,417.002441 620.063599,417.066559 619.316162,417.056122 
	C618.562866,418.053009 617.809570,419.049927 617.002563,420.002441 
	C617.002563,420.002441 617.046875,420.055756 616.419189,420.106201 
	C616.069153,420.546906 615.719116,420.987610 615.098694,421.168091 
	C615.098694,421.168091 615.336670,421.458160 614.614990,421.263367 
	C613.435791,422.207458 612.256592,423.151520 610.994019,424.012360 
	C610.994019,424.012360 611.083862,424.085815 610.344177,424.049652 
	C609.620972,424.546478 608.897705,425.043304 607.522766,425.950165 
	C586.295105,431.963959 568.289124,419.147797 567.942505,397.594055 
	C567.888062,394.207672 566.578247,392.341034 563.992798,390.708649 
	C563.461731,390.478027 562.930847,390.046326 562.399475,390.045624 
	C535.588928,390.010437 508.778229,389.991394 481.967834,390.073456 
	C480.685699,390.077362 479.406372,391.009888 477.557465,391.918640 
	C476.708649,393.943695 475.541656,395.900726 475.090485,398.010803 
	C474.509766,400.726654 474.926941,403.685150 474.178650,406.331085 
	C469.959900,421.247955 455.715363,429.678650 439.044739,426.911377 
	C428.334656,425.133514 415.489868,414.604675 416.716003,398.713043 
	C417.195648,392.496246 415.361237,391.029205 409.334412,391.025024 
	C406.669250,391.023163 403.997223,391.144928 401.340210,390.997040 
	C393.126831,390.540100 386.861389,394.039368 382.071838,400.436005 
	C377.970795,405.912994 375.984619,412.109222 375.987122,418.998627 
	C376.013062,490.292023 376.115753,561.585693 375.908325,632.878540 
	C375.865692,647.531128 381.508575,658.403687 394.374481,666.531860 
	C396.206909,667.019714 398.038971,667.932495 399.871857,667.934204 
	C479.559723,668.007507 559.247681,668.001404 638.935608,667.991089 
	C640.217834,667.990906 641.500122,667.819641 642.782349,667.728210 
	C642.645142,667.508728 642.536133,667.261902 642.359863,667.080383 
	C642.260010,666.977539 642.049927,666.981750 642.399109,666.440979 
	C645.017700,665.136841 647.792725,664.072571 650.226318,662.484863 
	C658.449890,657.119629 662.766846,648.945679 666.512817,639.425537 
	C666.673645,638.122986 666.974915,636.820557 666.975281,635.517944 
	C666.995605,563.296997 667.000977,491.076080 666.922668,418.855225 
	C666.920959,417.254181 665.937439,415.654205 665.052124,413.432648 
	C664.347839,406.968658 661.050903,401.791992 657.217224,396.729248 
	C656.779114,396.491180 656.340942,396.253143 655.511230,395.918457 
	C655.232178,395.808716 655.072510,395.605316 654.730591,394.728699 
	C654.152039,394.491089 653.573425,394.253448 652.495300,393.954529 
	C652.294617,393.698059 652.093872,393.441559 651.618591,392.491760 
	C650.380371,391.720825 649.167664,390.335785 647.899597,390.283142 
	C641.771729,390.028809 635.627075,390.057129 629.494263,390.213776 
	C628.795654,390.231628 628.133667,391.682404 627.082214,392.327972 
	C627.082214,392.327972 627.436523,392.509644 626.886780,392.466125 
	C626.805176,392.779572 626.723572,393.093048 626.566772,393.405243 
	C626.566772,393.405243 626.518250,393.462646 625.718262,393.662903 
	C625.186096,399.146088 624.653870,404.629272 624.032349,409.999023 
	C624.032349,409.999023 624.145325,410.088989 623.502136,410.349030 
	C622.764893,411.978271 622.027649,413.607544 621.052612,414.998260 
	C621.052612,414.998260 621.307800,415.218506 620.715332,415.403870 
	C620.499146,415.956543 620.282959,416.509216 620.000000,417.002441 
M458.660553,351.855377 
	C458.437103,351.555084 458.213654,351.254791 457.460388,350.547943 
	C452.969727,343.910767 447.916168,341.921112 440.917603,344.034821 
	C435.708069,345.608215 432.928497,350.452972 432.935608,357.961578 
	C432.948547,371.625763 432.952454,385.289948 432.984955,398.954102 
	C433.002625,406.394531 437.178192,410.546875 444.606049,410.892395 
	C451.401398,411.208496 455.950745,408.125122 459.438599,401.554352 
	C459.603241,401.092377 459.910461,400.630859 459.911896,400.168427 
	C459.958374,385.103943 460.001953,370.039246 459.926910,354.975159 
	C459.922699,354.122772 458.908600,353.275452 458.334869,352.314758 
	C458.334869,352.314758 458.292694,352.207947 458.660553,351.855377 
M583.741455,401.132019 
	C586.525452,408.788239 592.135620,412.118622 599.994446,410.780457 
	C606.669373,409.643829 609.962585,405.084656 609.966553,396.945831 
	C609.972656,384.285980 609.962646,371.626160 609.971741,358.966309 
	C609.978088,350.122650 606.711548,345.362091 599.510437,343.765778 
	C592.343567,342.177032 587.206848,345.166443 582.818115,353.450531 
	C582.626465,353.718445 582.268677,353.985291 582.266968,354.254425 
	C582.168945,369.558716 582.097595,384.863190 582.083862,400.167725 
	C582.083740,400.286682 582.908081,400.406403 583.741455,401.132019 
z"/>
<path fill="#FEFEEF" opacity="1.000000" stroke="none" 
	d="
M672.992493,782.241760 
	C671.119324,782.823853 669.246826,783.912842 667.372986,783.914978 
	C591.541748,784.001831 515.710449,783.990784 439.879150,783.991699 
	C416.379791,783.992004 392.880341,784.012756 369.381165,783.944702 
	C367.678833,783.939819 365.978363,783.284363 364.172180,782.555481 
	C364.067352,782.179626 364.130585,781.946533 364.449921,781.990356 
	C366.168274,782.100830 367.567291,782.167542 369.066223,782.382385 
	C369.456421,782.441467 369.746704,782.352478 370.500610,782.212036 
	C406.968781,782.193298 442.973419,782.226074 479.217468,782.467163 
	C480.645416,782.540283 481.833954,782.405090 483.445343,782.221313 
	C485.569489,782.206177 487.270721,782.239624 489.137543,782.457214 
	C489.878326,782.515808 490.453552,782.390259 491.493073,782.215149 
	C519.959229,782.195190 547.961182,782.224731 576.064941,782.399719 
	C576.456665,782.451111 576.746460,782.356995 577.500183,782.214722 
	C609.640259,782.191589 641.316345,782.216675 672.992493,782.241760 
z"/>
<path fill="#FEFEEF" opacity="1.000000" stroke="none" 
	d="
M740.550903,716.867065 
	C740.122986,716.813660 740.070923,716.643982 740.007324,716.003296 
	C739.995728,715.532166 740.064209,715.073425 740.322510,714.741577 
	C740.585449,708.569397 740.590149,702.729126 740.614990,696.457764 
	C740.619751,693.724121 740.604187,691.421570 740.740479,688.663513 
	C740.789673,678.769592 740.686951,669.331177 740.607178,659.546143 
	C740.620483,658.505127 740.610840,657.810608 740.752930,656.674744 
	C740.809143,653.452576 740.713562,650.671814 740.638855,647.468018 
	C740.645447,645.069275 740.631104,643.093567 740.762512,640.660645 
	C740.938599,625.731995 741.021606,611.260437 740.980652,596.789185 
	C740.954346,587.489014 740.745789,578.189331 740.640808,568.512695 
	C740.646423,567.129944 740.630127,566.124023 740.759888,564.661011 
	C740.936646,546.237366 741.005188,528.270813 740.978943,510.304382 
	C740.968994,503.499695 740.740356,496.695312 740.631226,489.452576 
	C740.633850,486.382965 740.616638,483.751587 740.752808,480.664917 
	C740.803345,470.769653 740.700623,461.329681 740.620239,451.543518 
	C740.629089,450.504150 740.615601,449.810944 740.749268,448.668945 
	C740.801086,444.776276 740.705750,441.332367 740.631592,437.491699 
	C740.638489,435.770721 740.624268,434.446533 740.757751,432.665314 
	C740.920227,391.712250 740.942688,351.216217 740.914734,310.720245 
	C740.913818,309.454742 740.391968,308.189606 740.054321,306.916138 
	C739.995544,306.907990 739.960327,307.021240 739.983643,306.653259 
	C739.731750,304.862152 739.456665,303.439087 739.181519,302.016022 
	C740.119019,305.144745 741.859863,308.270172 741.872864,311.402710 
	C742.052856,354.874207 741.996826,398.346680 741.996826,441.818909 
	C741.996765,531.428345 742.002747,621.037720 741.950439,710.647156 
	C741.949280,712.681885 741.282776,714.716309 740.550903,716.867065 
z"/>
<path fill="#026DFB" opacity="1.000000" stroke="none" 
	d="
M688.950928,247.585632 
	C652.979614,241.697479 616.517334,245.929153 580.194885,245.167450 
	C543.568176,244.399353 506.912750,245.000946 470.269928,244.997391 
	C433.793762,244.993866 397.317627,244.984070 360.364197,244.953033 
	C360.403412,244.613953 360.919922,244.298843 362.055939,243.888870 
	C363.110229,243.744934 363.545044,243.695831 363.979828,243.646729 
	C363.979828,243.646729 364.379395,243.847580 365.080627,243.914093 
	C469.513123,243.983215 573.244385,243.985825 677.325256,243.992645 
	C678.371399,244.051743 679.067932,244.106628 679.764404,244.161530 
	C682.755981,245.204132 685.747498,246.246719 688.950928,247.585632 
z"/>
<path fill="#FEFEEF" opacity="1.000000" stroke="none" 
	d="
M679.941467,243.924042 
	C679.067932,244.106628 678.371399,244.051743 677.001465,243.737930 
	C674.008301,243.319321 671.688599,243.021393 669.368835,243.020203 
	C615.726135,242.992828 562.083435,243.013138 508.440704,242.991867 
	C461.964020,242.973434 415.487305,242.914627 369.010620,242.873657 
	C370.764465,242.582764 372.518250,242.038025 374.272186,242.037308 
	C474.133423,241.996460 573.994629,241.990570 673.855835,242.071075 
	C675.943787,242.072754 678.031006,243.124634 679.941467,243.924042 
z"/>
<path fill="#138DFE" opacity="1.000000" stroke="none" 
	d="
M368.643860,242.950287 
	C415.487305,242.914627 461.964020,242.973434 508.440704,242.991867 
	C562.083435,243.013138 615.726135,242.992828 669.368835,243.020203 
	C671.688599,243.021393 674.008301,243.319321 676.651794,243.733734 
	C573.244385,243.985825 469.513123,243.983215 365.302063,243.945312 
	C365.973846,243.615662 367.125458,243.321304 368.643860,242.950287 
z"/>
<path fill="#0058FE" opacity="1.000000" stroke="none" 
	d="
M368.966309,782.234314 
	C367.567291,782.167542 366.168274,782.100830 364.370544,781.899292 
	C365.577393,781.509583 367.182953,781.032227 368.788605,781.031677 
	C469.306183,780.997498 569.823730,781.001038 670.341309,781.016602 
	C671.658875,781.016785 672.976501,781.215393 674.613525,781.575134 
	C674.496765,781.897278 674.060547,781.965637 673.308350,782.137878 
	C641.316345,782.216675 609.640259,782.191589 577.232544,782.128418 
	C576.321655,782.144897 576.142334,782.199585 575.963074,782.254211 
	C547.961182,782.224731 519.959229,782.195190 491.154968,782.112244 
	C489.892395,782.130249 489.432190,782.201660 488.971985,782.273071 
	C487.270721,782.239624 485.569489,782.206177 483.049377,782.113953 
	C481.146393,782.123047 480.062195,782.190918 478.978027,782.258789 
	C442.973419,782.226074 406.968781,782.193298 370.235046,782.126465 
	C369.326050,782.139648 369.146179,782.187012 368.966309,782.234314 
z"/>
<path fill="#FEFEEF" opacity="1.000000" stroke="none" 
	d="
M300.545776,298.101990 
	C300.688416,299.134674 300.475372,300.248230 300.133301,302.079285 
	C299.936310,303.846985 299.868317,304.897217 299.800323,305.947479 
	C299.800323,305.947479 299.910156,305.949554 299.615112,306.100281 
	C299.159576,307.164948 298.999054,308.078888 298.629272,309.194397 
	C298.537201,310.264832 298.654388,311.133667 298.834106,312.467163 
	C298.855774,320.953796 298.814941,328.975800 298.557495,337.257263 
	C298.483551,339.011688 298.626190,340.506592 298.828522,342.466187 
	C298.851349,348.952393 298.814453,354.973969 298.544220,361.320160 
	C298.463043,365.097595 298.615265,368.550385 298.827271,372.468109 
	C298.852234,386.283447 298.817413,399.633850 298.644958,413.085480 
	C298.599609,413.463165 298.691925,413.739594 298.842194,414.480347 
	C298.863312,423.617645 298.826477,432.290588 298.591614,440.965393 
	C298.393616,440.967255 297.998779,440.998871 297.998779,440.998871 
	C297.667847,439.264496 297.050201,437.530518 297.047913,435.795715 
	C296.992859,394.334869 296.908173,352.873322 297.142456,311.413727 
	C297.167419,306.997864 299.127625,302.592926 300.545776,298.101990 
z"/>
<path fill="#FEFEEF" opacity="1.000000" stroke="none" 
	d="
M298.002777,715.997559 
	C297.671356,714.597229 297.052032,713.197205 297.050293,711.796448 
	C296.997925,669.364563 297.003235,626.932556 297.025146,584.500610 
	C297.025635,583.529785 297.320618,582.559021 297.774811,581.578857 
	C298.315979,582.046814 298.560577,582.524170 298.856750,583.467346 
	C298.864014,591.616577 298.819763,599.299866 298.637268,607.083923 
	C298.455566,607.289551 298.347137,607.428528 298.380890,607.492981 
	C298.480774,607.683472 298.636841,607.844543 298.825623,608.463013 
	C298.842529,611.603027 298.804718,614.297180 298.582977,617.154297 
	C298.523071,617.881226 298.647064,618.445190 298.829987,619.473755 
	C298.850037,628.619934 298.811157,637.301453 298.633728,646.083801 
	C298.587219,646.462097 298.679291,646.739624 298.828918,647.481445 
	C298.847992,656.295837 298.809479,664.645996 298.541412,673.298523 
	C298.464355,676.068604 298.616852,678.536194 298.827728,681.444397 
	C298.847290,684.253662 298.808472,686.622437 298.585876,689.154419 
	C298.526123,689.881836 298.650208,690.445923 298.833496,691.473633 
	C298.856903,697.288147 298.821167,702.639160 298.601562,708.153992 
	C298.542053,708.881775 298.666412,709.445801 298.847992,710.381653 
	C298.867035,711.503174 298.828857,712.252747 298.575012,713.239685 
	C298.239136,714.317993 298.118958,715.158997 297.999390,716.000000 
	C298.000000,716.000000 298.002777,715.997559 298.002777,715.997559 
z"/>
<path fill="#0058FE" opacity="1.000000" stroke="none" 
	d="
M298.775513,606.983215 
	C298.819763,599.299866 298.864014,591.616577 298.951019,583.138916 
	C298.964325,581.891357 298.934906,581.438171 298.905457,580.984924 
	C298.905457,580.984924 299.063843,580.624023 299.375061,580.352661 
	C300.114868,580.046082 300.543396,580.010803 300.971924,579.975586 
	C300.648224,582.164734 300.045197,584.353516 300.042145,586.543091 
	C299.984924,627.655518 300.003937,668.767944 299.983337,709.880432 
	C299.982269,712.030029 299.771240,714.179443 299.324951,716.423218 
	C298.940399,716.357361 298.888885,716.197205 298.916351,715.660828 
	C298.927124,714.523804 298.858887,713.763123 298.790680,713.002380 
	C298.828857,712.252747 298.867035,711.503174 298.936829,710.048706 
	C298.907471,708.892700 298.846466,708.441406 298.785431,707.990173 
	C298.821167,702.639160 298.856903,697.288147 298.923767,691.140869 
	C298.893158,689.893494 298.831421,689.442322 298.769684,688.991150 
	C298.808472,686.622437 298.847290,684.253662 298.920532,681.007324 
	C298.893616,677.751770 298.832275,675.373962 298.770935,672.996094 
	C298.809479,664.645996 298.847992,656.295837 298.905182,647.222900 
	C298.873322,646.327759 298.822784,646.155396 298.772278,645.983032 
	C298.811157,637.301453 298.850037,628.619934 298.920410,619.141235 
	C298.890198,617.893188 298.828522,617.442261 298.766876,616.991272 
	C298.804718,614.297180 298.842529,611.603027 298.903229,608.204834 
	C298.875885,607.328247 298.825714,607.155762 298.775513,606.983215 
z"/>
<path fill="#026DFB" opacity="1.000000" stroke="none" 
	d="
M739.061401,301.645874 
	C739.456665,303.439087 739.731750,304.862152 739.746521,306.646973 
	C739.486145,307.008667 739.011902,307.006256 739.011963,307.006256 
	C737.728149,302.196259 736.444336,297.386292 735.291016,292.182312 
	C736.594727,294.950775 737.768005,298.113251 739.061401,301.645874 
z"/>
<path fill="#026DFB" opacity="1.000000" stroke="none" 
	d="
M356.540710,245.804321 
	C353.524597,247.157822 350.116852,248.561279 346.315735,249.958801 
	C349.331268,248.586655 352.740204,247.220459 356.540710,245.804321 
z"/>
<path fill="#026DFB" opacity="1.000000" stroke="none" 
	d="
M735.461914,291.233459 
	C734.383057,289.571259 733.227051,287.570709 732.119385,285.183228 
	C733.240112,286.829224 734.312439,288.862183 735.461914,291.233459 
z"/>
<path fill="#FEFEEF" opacity="1.000000" stroke="none" 
	d="
M298.979309,720.061890 
	C299.789825,721.337219 300.335083,722.807312 300.832397,724.630249 
	C300.094330,723.407593 299.404205,721.832153 298.979309,720.061890 
z"/>
<path fill="#026DFB" opacity="1.000000" stroke="none" 
	d="
M695.982178,250.560516 
	C693.921753,250.040604 691.654419,249.232880 689.215576,248.110077 
	C691.287781,248.620911 693.531494,249.446808 695.982178,250.560516 
z"/>
<path fill="#026DFB" opacity="1.000000" stroke="none" 
	d="
M342.202393,251.578644 
	C340.877411,252.619583 339.240448,253.758942 337.230469,254.904785 
	C338.535095,253.833221 340.212769,252.755142 342.202393,251.578644 
z"/>
<path fill="#026DFB" opacity="1.000000" stroke="none" 
	d="
M724.112793,272.545868 
	C723.147034,271.797333 722.078918,270.743347 721.008240,269.313171 
	C722.007202,270.038086 723.008850,271.139282 724.112793,272.545868 
z"/>
<path fill="#026DFB" opacity="1.000000" stroke="none" 
	d="
M727.965088,277.670593 
	C727.053955,276.864716 726.067383,275.743835 725.062805,274.268555 
	C725.993042,275.061340 726.941345,276.208466 727.965088,277.670593 
z"/>
<path fill="#026DFB" opacity="1.000000" stroke="none" 
	d="
M709.338257,258.592957 
	C708.072449,258.115601 706.608704,257.350433 705.118469,256.212555 
	C706.441406,256.661621 707.790833,257.483368 709.338257,258.592957 
z"/>
<path fill="#026DFB" opacity="1.000000" stroke="none" 
	d="
M731.097900,282.588837 
	C730.474243,282.113892 729.775208,281.329620 729.121765,280.167847 
	C729.785828,280.620117 730.404175,281.449829 731.097900,282.588837 
z"/>
<path fill="#026DFB" opacity="1.000000" stroke="none" 
	d="
M703.079773,254.427826 
	C702.228088,254.314621 701.191345,253.947205 700.122559,253.206909 
	C701.025208,253.280563 701.959961,253.727097 703.079773,254.427826 
z"/>
<path fill="#FEFEEF" opacity="1.000000" stroke="none" 
	d="
M363.916443,243.394897 
	C363.545044,243.695831 363.110229,243.744934 362.347473,243.760757 
	C362.630676,243.532684 363.241882,243.337875 363.916443,243.394897 
z"/>
<path fill="#026DFB" opacity="1.000000" stroke="none" 
	d="
M329.577667,259.822388 
	C329.118713,260.470245 328.346954,261.193970 327.232361,261.927246 
	C327.681335,261.257294 328.473083,260.577789 329.577667,259.822388 
z"/>
<path fill="#026DFB" opacity="1.000000" stroke="none" 
	d="
M718.973022,266.697266 
	C718.192932,266.401947 717.287109,265.819672 716.438477,264.881561 
	C717.279602,265.153931 718.063477,265.782104 718.973022,266.697266 
z"/>
<path fill="#026DFB" opacity="1.000000" stroke="none" 
	d="
M333.601501,256.854248 
	C333.131470,257.493469 332.346344,258.203644 331.218323,258.920105 
	C331.679108,258.259308 332.482758,257.592285 333.601501,256.854248 
z"/>
<path fill="#026DFB" opacity="1.000000" stroke="none" 
	d="
M336.631897,254.902283 
	C336.135651,255.523087 335.323792,256.211334 334.166443,256.884583 
	C334.652771,256.236328 335.484558,255.603027 336.631897,254.902283 
z"/>
<path fill="#026DFB" opacity="1.000000" stroke="none" 
	d="
M713.137085,261.505615 
	C712.552307,261.391174 711.832214,261.009430 711.068970,260.286407 
	C711.684448,260.376190 712.343079,260.807251 713.137085,261.505615 
z"/>
<path fill="#026DFB" opacity="1.000000" stroke="none" 
	d="
M317.456543,270.755768 
	C317.272095,271.351471 316.781097,272.053711 315.957458,272.839111 
	C316.133209,272.235626 316.641571,271.548981 317.456543,270.755768 
z"/>
<path fill="#026DFB" opacity="1.000000" stroke="none" 
	d="
M359.631714,244.883942 
	C359.169128,245.224686 358.356628,245.580444 357.182953,245.892700 
	C357.641815,245.532455 358.461792,245.215698 359.631714,244.883942 
z"/>
<path fill="#FEFEEF" opacity="1.000000" stroke="none" 
	d="
M298.837341,716.037109 
	C298.888885,716.197205 298.940399,716.357361 299.079102,716.754272 
	C299.113373,717.151611 299.060425,717.312256 298.941467,717.717651 
	C298.596649,717.496399 298.317810,717.030273 298.020874,716.280884 
	C298.002777,715.997559 298.000000,716.000000 298.209106,716.008423 
	C298.418182,716.016785 298.837341,716.037109 298.837341,716.037109 
z"/>
<path fill="#026DFB" opacity="1.000000" stroke="none" 
	d="
M699.990051,252.633270 
	C699.552368,252.715515 698.955017,252.529404 698.213867,252.049820 
	C698.656799,251.959198 699.243591,252.162048 699.990051,252.633270 
z"/>
<path fill="#026DFB" opacity="1.000000" stroke="none" 
	d="
M705.007324,255.625641 
	C704.553406,255.688660 703.962402,255.475204 703.284790,254.938538 
	C703.755554,254.859940 704.312866,255.104568 705.007324,255.625641 
z"/>
<path fill="#026DFB" opacity="1.000000" stroke="none" 
	d="
M698.040894,251.568634 
	C697.588501,251.678711 696.976379,251.513992 696.215393,251.051834 
	C696.671387,250.934204 697.276245,251.114014 698.040894,251.568634 
z"/>
<path fill="#D4EBED" opacity="1.000000" stroke="none" 
	d="
M298.700500,580.996582 
	C298.934906,581.438171 298.964325,581.891357 298.899475,582.673035 
	C298.560577,582.524170 298.315979,582.046814 298.078247,581.291321 
	C298.085083,581.013123 298.495575,581.008240 298.700500,580.996582 
z"/>
<path fill="#FEFEEF" opacity="1.000000" stroke="none" 
	d="
M301.058838,579.756042 
	C300.543396,580.010803 300.114868,580.046082 299.372528,580.155640 
	C299.581329,579.855530 300.103912,579.481079 300.969788,579.100830 
	C301.313110,579.094971 301.145721,579.536499 301.058838,579.756042 
z"/>
<path fill="#026DFB" opacity="1.000000" stroke="none" 
	d="
M345.681091,249.948380 
	C345.500580,250.247696 345.016174,250.583420 344.219116,250.933212 
	C344.396729,250.626450 344.886993,250.305618 345.681091,249.948380 
z"/>
<path fill="#026DFB" opacity="1.000000" stroke="none" 
	d="
M732.207642,284.601624 
	C731.871216,284.442322 731.481812,283.972626 731.099854,283.173248 
	C731.456543,283.326111 731.805603,283.808685 732.207642,284.601624 
z"/>
<path fill="#026DFB" opacity="1.000000" stroke="none" 
	d="
M729.190613,279.613892 
	C728.860779,279.471375 728.468079,279.029327 728.046631,278.272125 
	C728.387756,278.409454 728.757751,278.861938 729.190613,279.613892 
z"/>
<path fill="#026DFB" opacity="1.000000" stroke="none" 
	d="
M330.689209,258.946655 
	C330.740967,259.154053 330.523743,259.443634 330.039886,259.815399 
	C329.988922,259.608002 330.204590,259.318420 330.689209,258.946655 
z"/>
<path fill="#026DFB" opacity="1.000000" stroke="none" 
	d="
M343.704529,250.933746 
	C343.721619,251.156158 343.473541,251.407974 342.950714,251.628601 
	C342.930420,251.386002 343.184875,251.174591 343.704529,250.933746 
z"/>
<path fill="#026DFB" opacity="1.000000" stroke="none" 
	d="
M725.015259,273.709656 
	C724.813049,273.756012 724.535034,273.534454 724.172607,273.053101 
	C724.371948,273.009430 724.655701,273.225616 725.015259,273.709656 
z"/>
<path fill="#026DFB" opacity="1.000000" stroke="none" 
	d="
M318.442566,269.718445 
	C318.555542,269.972015 318.398438,270.316071 317.947632,270.724182 
	C317.826752,270.461823 317.999634,270.135376 318.442566,269.718445 
z"/>
<path fill="#026DFB" opacity="1.000000" stroke="none" 
	d="
M319.378174,268.691681 
	C319.496124,268.946381 319.355865,269.294708 318.914856,269.684906 
	C318.782715,269.412964 318.951324,269.099152 319.378174,268.691681 
z"/>
<path fill="#026DFB" opacity="1.000000" stroke="none" 
	d="
M320.443207,267.687866 
	C320.540314,267.947327 320.374390,268.288361 319.904297,268.644836 
	C319.793488,268.363312 319.986816,268.066406 320.443207,267.687866 
z"/>
<path fill="#026DFB" opacity="1.000000" stroke="none" 
	d="
M321.394226,266.694580 
	C321.506989,266.950256 321.359955,267.297577 320.910950,267.684326 
	C320.784119,267.411255 320.959259,267.098694 321.394226,266.694580 
z"/>
<path fill="#026DFB" opacity="1.000000" stroke="none" 
	d="
M716.323303,264.294067 
	C716.070984,264.418640 715.721069,264.304352 715.353760,263.884460 
	C715.632874,263.737640 715.929260,263.896423 716.323303,264.294067 
z"/>
<path fill="#026DFB" opacity="1.000000" stroke="none" 
	d="
M710.963562,259.746796 
	C710.743652,259.902100 710.472900,259.741852 710.118958,259.300537 
	C710.280273,259.237610 710.572510,259.374878 710.963562,259.746796 
z"/>
<path fill="#026DFB" opacity="1.000000" stroke="none" 
	d="
M322.391602,265.681335 
	C322.500702,265.942169 322.352661,266.287903 321.899658,266.650757 
	C321.774658,266.367340 321.954559,266.066803 322.391602,265.681335 
z"/>
<path fill="#026DFB" opacity="1.000000" stroke="none" 
	d="
M323.533447,264.734985 
	C323.612335,264.990173 323.418274,265.316895 322.923889,265.661011 
	C322.835846,265.387817 323.048187,265.097137 323.533447,264.734985 
z"/>
<path fill="#026DFB" opacity="1.000000" stroke="none" 
	d="
M326.701660,261.966217 
	C326.755829,262.168365 326.545563,262.455475 326.080322,262.840271 
	C326.029327,262.642334 326.233246,262.346741 326.701660,261.966217 
z"/>
<path fill="#026DFB" opacity="1.000000" stroke="none" 
	d="
M714.165405,262.610107 
	C713.931824,262.683807 713.615906,262.479675 713.223633,261.993286 
	C713.459229,261.918091 713.771118,262.125153 714.165405,262.610107 
z"/>
<path fill="#026DFB" opacity="1.000000" stroke="none" 
	d="
M325.665100,262.904694 
	C325.719452,263.118317 325.500885,263.415924 325.006866,263.788849 
	C324.951721,263.572327 325.171967,263.280487 325.665100,262.904694 
z"/>
<path fill="#026DFB" opacity="1.000000" stroke="none" 
	d="
M715.251587,263.401428 
	C715.015930,263.535095 714.665771,263.413452 714.210266,263.017487 
	C714.448975,262.877472 714.792969,263.011749 715.251587,263.401428 
z"/>
<path fill="#D4EBED" opacity="1.000000" stroke="none" 
	d="
M298.104980,441.202087 
	C297.998779,440.998871 298.393616,440.967255 298.719116,441.230164 
	C299.140991,441.663574 299.237366,441.834076 299.333740,442.004547 
	C299.333740,442.004547 299.126160,442.000916 299.023468,441.985718 
	C298.629303,441.851105 298.392792,441.662689 298.104980,441.202087 
z"/>
<path fill="#026DFB" opacity="1.000000" stroke="none" 
	d="
M324.581238,263.801697 
	C324.659515,264.038513 324.460419,264.360565 323.974487,264.753143 
	C323.893036,264.511414 324.098450,264.199188 324.581238,263.801697 
z"/>
<path fill="#FAF9F6" opacity="1.000000" stroke="none" 
	d="
M651.893188,393.185120 
	C652.093872,393.441559 652.294617,393.698059 652.938721,394.224701 
	C653.932190,394.765991 654.482178,395.037109 655.032166,395.308228 
	C655.072510,395.605316 655.232178,395.808716 655.800537,396.201874 
	C656.363159,396.668365 656.636475,396.851440 656.909851,397.034485 
	C661.050903,401.791992 664.347839,406.968658 665.341858,414.200562 
	C665.681519,416.794586 665.774292,418.620697 665.775269,420.446869 
	C665.815857,493.623718 665.848145,566.800598 665.881470,639.977417 
	C662.766846,648.945679 658.449890,657.119629 650.226318,662.484863 
	C647.792725,664.072571 645.017700,665.136841 641.682556,666.688721 
	C561.096741,666.957092 481.227448,666.988281 401.358185,666.947388 
	C398.925507,666.946167 396.493225,666.192322 394.060760,665.789307 
	C381.508575,658.403687 375.865692,647.531128 375.908325,632.878540 
	C376.115753,561.585693 376.013062,490.292023 375.987122,418.998627 
	C375.984619,412.109222 377.970795,405.912994 382.071838,400.436005 
	C386.861389,394.039368 393.126831,390.540100 401.340210,390.997040 
	C403.997223,391.144928 406.669250,391.023163 409.334412,391.025024 
	C415.361237,391.029205 417.195648,392.496246 416.716003,398.713043 
	C415.489868,414.604675 428.334656,425.133514 439.044739,426.911377 
	C455.715363,429.678650 469.959900,421.247955 474.178650,406.331085 
	C474.926941,403.685150 474.509766,400.726654 475.090485,398.010803 
	C475.541656,395.900726 476.708649,393.943695 478.094604,391.713135 
	C478.938782,391.376587 479.245758,391.245544 479.953613,391.313629 
	C498.782867,391.551971 517.211365,391.649170 535.639587,391.605438 
	C544.575378,391.584229 553.510437,391.298981 562.630371,391.248077 
	C562.814880,391.362885 563.248413,391.380890 563.248413,391.380890 
	C563.248413,391.380890 563.652405,391.222565 563.652405,391.222565 
	C566.578247,392.341034 567.888062,394.207672 567.942505,397.594055 
	C568.289124,419.147797 586.295105,431.963959 608.169617,425.643250 
	C609.572266,424.919495 610.328064,424.502655 611.083862,424.085815 
	C611.083862,424.085815 610.994019,424.012360 611.359619,424.017761 
	C612.929077,423.168152 614.132874,422.313171 615.336670,421.458160 
	C615.336670,421.458160 615.098694,421.168091 615.505249,421.208771 
	C616.290161,420.851562 616.668518,420.453674 617.046875,420.055786 
	C617.046875,420.055756 617.002563,420.002441 617.319458,419.914185 
	C618.445374,418.906128 619.254456,417.986328 620.063599,417.066528 
	C620.063599,417.066559 620.000000,417.002441 620.301758,416.908203 
	C620.838257,416.282166 621.072998,415.750336 621.307800,415.218506 
	C621.307800,415.218506 621.052612,414.998260 621.455139,414.943146 
	C622.620239,413.288361 623.382751,411.688660 624.145325,410.088989 
	C624.145325,410.088989 624.032349,409.999023 624.383301,409.814270 
	C625.328918,404.240570 625.923584,398.851624 626.518250,393.462646 
	C626.518250,393.462646 626.566772,393.405243 626.783813,393.303864 
	C627.223206,393.020020 627.368469,392.789062 627.436523,392.509644 
	C627.436523,392.509644 627.082214,392.327972 627.672241,392.213043 
	C636.139221,392.460449 644.016174,392.822784 651.893188,393.185120 
M474.980713,586.519226 
	C480.882690,592.157532 486.743256,597.840027 492.696075,603.424194 
	C502.351624,612.481812 513.338135,612.396362 522.523254,602.869690 
	C544.145386,580.443542 565.639587,557.893860 587.143372,535.353882 
	C597.145203,524.870056 607.353760,514.560303 616.907898,503.679352 
	C625.791626,493.561920 623.201660,477.977844 612.277527,471.844055 
	C604.923889,467.715057 595.866333,469.391632 588.742981,476.612030 
	C572.945435,492.624756 557.260498,508.748932 541.576233,524.872986 
	C530.231323,536.536011 518.961426,548.272034 507.441010,560.200256 
	C493.129028,546.634766 478.842560,533.610718 465.210724,519.934265 
	C459.222076,513.926086 452.998718,511.032471 444.505310,511.689178 
	C435.703033,512.369812 429.533020,517.268982 427.778687,525.994934 
	C426.285126,533.423767 427.919800,539.828003 433.315155,545.188232 
	C447.025879,558.809692 460.754425,572.413208 474.980713,586.519226 
z"/>
<path fill="#F6F7F6" opacity="1.000000" stroke="none" 
	d="
M583.588928,353.031525 
	C587.206848,345.166443 592.343567,342.177032 599.510437,343.765778 
	C606.711548,345.362091 609.978088,350.122650 609.971741,358.966309 
	C609.962646,371.626160 609.972656,384.285980 609.966553,396.945831 
	C609.962585,405.084656 606.669373,409.643829 599.994446,410.780457 
	C592.135620,412.118622 586.525452,408.788239 583.607544,400.398376 
	C583.512024,384.120300 583.550476,368.575928 583.588928,353.031525 
z"/>
<path fill="#FAF9F6" opacity="1.000000" stroke="none" 
	d="
M458.794067,402.150665 
	C455.950745,408.125122 451.401398,411.208496 444.606049,410.892395 
	C437.178192,410.546875 433.002625,406.394531 432.984955,398.954102 
	C432.952454,385.289948 432.948547,371.625763 432.935608,357.961578 
	C432.928497,350.452972 435.708069,345.608215 440.917603,344.034821 
	C447.916168,341.921112 452.969727,343.910767 457.724213,350.975220 
	C457.965668,351.717926 458.067230,351.986420 458.292694,352.207947 
	C458.292694,352.207947 458.334869,352.314758 458.396057,352.805786 
	C458.569519,369.581421 458.681793,385.866058 458.794067,402.150665 
z"/>
<path fill="#0061FE" opacity="1.000000" stroke="none" 
	d="
M739.008423,307.474274 
	C739.011902,307.006256 739.486145,307.008667 739.723267,307.014954 
	C739.960327,307.021240 739.995544,306.907990 739.981323,307.385162 
	C739.980469,347.825958 739.986084,387.789581 740.032776,427.753174 
	C740.034851,429.543152 740.409119,431.332642 740.610046,433.122375 
	C740.624268,434.446533 740.638489,435.770721 740.424866,437.839844 
	C740.332031,442.095764 740.467041,445.606720 740.602112,449.117706 
	C740.615601,449.810944 740.629089,450.504150 740.411621,451.905090 
	C740.320190,462.115295 740.459839,471.617737 740.599487,481.120209 
	C740.616638,483.751587 740.633850,486.382965 740.423706,489.814453 
	C740.141785,514.827515 740.082886,539.040405 740.057129,563.253357 
	C740.056458,563.874756 740.420166,564.496521 740.613892,565.118103 
	C740.630127,566.124023 740.646423,567.129944 740.429321,568.872925 
	C740.140991,592.824829 740.081360,616.039734 740.055725,639.254578 
	C740.055054,639.875488 740.421570,640.496704 740.616821,641.117798 
	C740.631104,643.093567 740.645447,645.069275 740.435303,647.803589 
	C740.341003,651.413513 740.471130,654.264832 740.601196,657.116150 
	C740.610840,657.810608 740.620483,658.505127 740.402954,659.909424 
	C740.313477,670.119202 740.451050,679.619141 740.588623,689.119019 
	C740.604187,691.421570 740.619751,693.724121 740.410278,696.820862 
	C740.144897,703.434509 740.104553,709.253967 740.064209,715.073425 
	C740.064209,715.073425 739.995728,715.532166 739.920532,715.751648 
	C739.565247,713.878479 739.040527,711.785828 739.039917,709.693115 
	C739.001160,575.776184 739.005005,441.859222 739.008423,307.474274 
z"/>
<path fill="#0058FE" opacity="1.000000" stroke="none" 
	d="
M394.217621,666.160583 
	C396.493225,666.192322 398.925507,666.946167 401.358185,666.947388 
	C481.227448,666.988281 561.096741,666.957092 641.427734,666.937134 
	C642.049927,666.981750 642.260010,666.977539 642.359863,667.080383 
	C642.536133,667.261902 642.645142,667.508728 642.782349,667.728210 
	C641.500122,667.819641 640.217834,667.990906 638.935608,667.991089 
	C559.247681,668.001404 479.559723,668.007507 399.871857,667.934204 
	C398.038971,667.932495 396.206909,667.019714 394.217621,666.160583 
z"/>
<path fill="#0058FE" opacity="1.000000" stroke="none" 
	d="
M666.197144,639.701477 
	C665.848145,566.800598 665.815857,493.623718 665.775269,420.446869 
	C665.774292,418.620697 665.681519,416.794586 665.521729,414.511078 
	C665.937439,415.654205 666.920959,417.254181 666.922668,418.855225 
	C667.000977,491.076080 666.995605,563.296997 666.975281,635.517944 
	C666.974915,636.820557 666.673645,638.122986 666.197144,639.701477 
z"/>
<path fill="#0058FE" opacity="1.000000" stroke="none" 
	d="
M299.536377,441.647339 
	C299.237366,441.834076 299.140991,441.663574 298.917114,441.228271 
	C298.826477,432.290588 298.863312,423.617645 298.916595,414.222290 
	C298.882904,413.327972 298.832733,413.156097 298.782593,412.984253 
	C298.817413,399.633850 298.852234,386.283447 298.920776,372.017609 
	C298.895508,367.733276 298.836548,364.364410 298.777588,360.995514 
	C298.814453,354.973969 298.851349,348.952393 298.921021,342.055969 
	C298.893921,339.786652 298.834015,338.392212 298.774109,336.997772 
	C298.814941,328.975800 298.855774,320.953796 298.928680,312.097900 
	C298.920013,310.506897 298.879272,309.749847 298.838562,308.992798 
	C298.999054,308.078888 299.159576,307.164948 299.604340,306.046448 
	C299.921448,350.500702 299.955139,395.159576 299.976898,439.818451 
	C299.977142,440.308990 299.821716,440.799591 299.536377,441.647339 
z"/>
<path fill="#0058FE" opacity="1.000000" stroke="none" 
	d="
M563.822632,390.965607 
	C563.652405,391.222565 563.248413,391.380890 563.248413,391.380890 
	C563.248413,391.380890 562.814880,391.362885 562.124146,391.189758 
	C534.139832,391.049255 506.846283,391.081879 479.552734,391.114502 
	C479.245758,391.245544 478.938782,391.376587 478.378754,391.508789 
	C479.406372,391.009888 480.685699,390.077362 481.967834,390.073456 
	C508.778229,389.991394 535.588928,390.010437 562.399475,390.045624 
	C562.930847,390.046326 563.461731,390.478027 563.822632,390.965607 
z"/>
<path fill="#0061FE" opacity="1.000000" stroke="none" 
	d="
M459.116333,401.852509 
	C458.681793,385.866058 458.569519,369.581421 458.410889,352.861267 
	C458.908600,353.275452 459.922699,354.122772 459.926910,354.975159 
	C460.001953,370.039246 459.958374,385.103943 459.911896,400.168427 
	C459.910461,400.630859 459.603241,401.092377 459.116333,401.852509 
z"/>
<path fill="#0058FE" opacity="1.000000" stroke="none" 
	d="
M583.203491,353.241028 
	C583.550476,368.575928 583.512024,384.120300 583.410522,400.095215 
	C582.908081,400.406403 582.083740,400.286682 582.083862,400.167725 
	C582.097595,384.863190 582.168945,369.558716 582.266968,354.254425 
	C582.268677,353.985291 582.626465,353.718445 583.203491,353.241028 
z"/>
<path fill="#138DFE" opacity="1.000000" stroke="none" 
	d="
M651.755859,392.838440 
	C644.016174,392.822784 636.139221,392.460449 627.858398,392.283447 
	C628.133667,391.682404 628.795654,390.231628 629.494263,390.213776 
	C635.627075,390.057129 641.771729,390.028809 647.899597,390.283142 
	C649.167664,390.335785 650.380371,391.720825 651.755859,392.838440 
z"/>
<path fill="#138DFE" opacity="1.000000" stroke="none" 
	d="
M626.118286,393.562775 
	C625.923584,398.851624 625.328918,404.240570 624.427979,409.871002 
	C624.653870,404.629272 625.186096,399.146088 626.118286,393.562775 
z"/>
<path fill="#138DFE" opacity="1.000000" stroke="none" 
	d="
M623.823730,410.218994 
	C623.382751,411.688660 622.620239,413.288361 621.574097,415.062439 
	C622.027649,413.607544 622.764893,411.978271 623.823730,410.218994 
z"/>
<path fill="#138DFE" opacity="1.000000" stroke="none" 
	d="
M614.975830,421.360779 
	C614.132874,422.313171 612.929077,423.168152 611.401367,424.059387 
	C612.256592,423.151520 613.435791,422.207458 614.975830,421.360779 
z"/>
<path fill="#138DFE" opacity="1.000000" stroke="none" 
	d="
M619.689880,417.061340 
	C619.254456,417.986328 618.445374,418.906128 617.346313,419.936371 
	C617.809570,419.049927 618.562866,418.053009 619.689880,417.061340 
z"/>
<path fill="#0058FE" opacity="1.000000" stroke="none" 
	d="
M300.084839,305.785950 
	C299.868317,304.897217 299.936310,303.846985 300.131989,302.422302 
	C300.296234,303.240082 300.332764,304.432251 300.084839,305.785950 
z"/>
<path fill="#138DFE" opacity="1.000000" stroke="none" 
	d="
M610.713989,424.067749 
	C610.328064,424.502655 609.572266,424.919495 608.495483,425.438232 
	C608.897705,425.043304 609.620972,424.546478 610.713989,424.067749 
z"/>
<path fill="#0061FE" opacity="1.000000" stroke="none" 
	d="
M458.476624,352.031677 
	C458.067230,351.986420 457.965668,351.717926 457.989136,351.178467 
	C458.213654,351.254791 458.437103,351.555084 458.476624,352.031677 
z"/>
<path fill="#138DFE" opacity="1.000000" stroke="none" 
	d="
M616.733032,420.080994 
	C616.668518,420.453674 616.290161,420.851562 615.640381,421.338867 
	C615.719116,420.987610 616.069153,420.546906 616.733032,420.080994 
z"/>
<path fill="#138DFE" opacity="1.000000" stroke="none" 
	d="
M621.011597,415.311188 
	C621.072998,415.750336 620.838257,416.282166 620.335144,416.937958 
	C620.282959,416.509216 620.499146,415.956543 621.011597,415.311188 
z"/>
<path fill="#138DFE" opacity="1.000000" stroke="none" 
	d="
M654.881348,395.018463 
	C654.482178,395.037109 653.932190,394.765991 653.188538,394.255371 
	C653.573425,394.253448 654.152039,394.491089 654.881348,395.018463 
z"/>
<path fill="#138DFE" opacity="1.000000" stroke="none" 
	d="
M657.063538,396.881866 
	C656.636475,396.851440 656.363159,396.668365 655.996338,396.250183 
	C656.340942,396.253143 656.779114,396.491180 657.063538,396.881866 
z"/>
<path fill="#138DFE" opacity="1.000000" stroke="none" 
	d="
M627.161621,392.487885 
	C627.368469,392.789062 627.223206,393.020020 626.821411,393.304504 
	C626.723572,393.093048 626.805176,392.779572 627.161621,392.487885 
z"/>
<path fill="#C2DFF1" opacity="1.000000" stroke="none" 
	d="
M479.217468,782.467102 
	C480.062195,782.190918 481.146393,782.123047 482.626526,782.162537 
	C481.833954,782.405090 480.645416,782.540283 479.217468,782.467102 
z"/>
<path fill="#C2DFF1" opacity="1.000000" stroke="none" 
	d="
M489.137543,782.457214 
	C489.432190,782.201660 489.892395,782.130249 490.690704,782.161743 
	C490.453552,782.390259 489.878326,782.515808 489.137543,782.457214 
z"/>
<path fill="#C2DFF1" opacity="1.000000" stroke="none" 
	d="
M576.064941,782.399719 
	C576.142334,782.199585 576.321655,782.144897 576.768616,782.176575 
	C576.746460,782.356995 576.456665,782.451111 576.064941,782.399719 
z"/>
<path fill="#C2DFF1" opacity="1.000000" stroke="none" 
	d="
M369.066223,782.382385 
	C369.146179,782.187012 369.326050,782.139648 369.771454,782.177979 
	C369.746704,782.352478 369.456421,782.441467 369.066223,782.382385 
z"/>
<path fill="#60B0F8" opacity="1.000000" stroke="none" 
	d="
M740.757751,432.665314 
	C740.409119,431.332642 740.034851,429.543152 740.032776,427.753174 
	C739.986084,387.789581 739.980469,347.825958 740.040039,307.393311 
	C740.391968,308.189606 740.913818,309.454742 740.914734,310.720245 
	C740.942688,351.216217 740.920227,391.712250 740.757751,432.665314 
z"/>
<path fill="#60B0F8" opacity="1.000000" stroke="none" 
	d="
M740.759888,564.661011 
	C740.420166,564.496521 740.056458,563.874756 740.057129,563.253357 
	C740.082886,539.040405 740.141785,514.827515 740.403931,490.252686 
	C740.740356,496.695312 740.968994,503.499695 740.978943,510.304382 
	C741.005188,528.270813 740.936646,546.237366 740.759888,564.661011 
z"/>
<path fill="#60B0F8" opacity="1.000000" stroke="none" 
	d="
M740.762512,640.660645 
	C740.421570,640.496704 740.055054,639.875488 740.055725,639.254578 
	C740.081360,616.039734 740.140991,592.824829 740.407471,569.249756 
	C740.745789,578.189331 740.954346,587.489014 740.980652,596.789185 
	C741.021606,611.260437 740.938599,625.731995 740.762512,640.660645 
z"/>
<path fill="#60B0F8" opacity="1.000000" stroke="none" 
	d="
M740.752808,480.664917 
	C740.459839,471.617737 740.320190,462.115295 740.389282,452.251251 
	C740.700623,461.329681 740.803345,470.769653 740.752808,480.664917 
z"/>
<path fill="#60B0F8" opacity="1.000000" stroke="none" 
	d="
M740.740479,688.663513 
	C740.451050,679.619141 740.313477,670.119202 740.380127,660.256042 
	C740.686951,669.331177 740.789673,678.769592 740.740479,688.663513 
z"/>
<path fill="#60B0F8" opacity="1.000000" stroke="none" 
	d="
M740.322510,714.741577 
	C740.104553,709.253967 740.144897,703.434509 740.390015,697.251953 
	C740.590149,702.729126 740.585449,708.569397 740.322510,714.741577 
z"/>
<path fill="#60B0F8" opacity="1.000000" stroke="none" 
	d="
M740.749268,448.668945 
	C740.467041,445.606720 740.332031,442.095764 740.403687,438.236633 
	C740.705750,441.332367 740.801086,444.776276 740.749268,448.668945 
z"/>
<path fill="#60B0F8" opacity="1.000000" stroke="none" 
	d="
M740.752930,656.674744 
	C740.471130,654.264832 740.341003,651.413513 740.414429,648.226624 
	C740.713562,650.671814 740.809143,653.452576 740.752930,656.674744 
z"/>
<path fill="#D4EBED" opacity="1.000000" stroke="none" 
	d="
M298.544220,361.320160 
	C298.836548,364.364410 298.895508,367.733276 298.860962,371.552673 
	C298.615265,368.550385 298.463043,365.097595 298.544220,361.320160 
z"/>
<path fill="#D4EBED" opacity="1.000000" stroke="none" 
	d="
M298.557495,337.257263 
	C298.834015,338.392212 298.893921,339.786652 298.861328,341.591309 
	C298.626190,340.506592 298.483551,339.011688 298.557495,337.257263 
z"/>
<path fill="#D4EBED" opacity="1.000000" stroke="none" 
	d="
M298.629272,309.194397 
	C298.879272,309.749847 298.920013,310.506897 298.866180,311.633240 
	C298.654388,311.133667 298.537201,310.264832 298.629272,309.194397 
z"/>
<path fill="#D4EBED" opacity="1.000000" stroke="none" 
	d="
M298.644958,413.085480 
	C298.832733,413.156097 298.882904,413.327972 298.858643,413.757935 
	C298.691925,413.739594 298.599609,413.463165 298.644958,413.085480 
z"/>
<path fill="#D4EBED" opacity="1.000000" stroke="none" 
	d="
M298.541382,673.298523 
	C298.832275,675.373962 298.893616,677.751770 298.862183,680.566772 
	C298.616852,678.536194 298.464355,676.068604 298.541382,673.298523 
z"/>
<path fill="#D4EBED" opacity="1.000000" stroke="none" 
	d="
M298.916351,715.660828 
	C298.837341,716.037109 298.418182,716.016785 298.208496,716.008423 
	C298.118958,715.158997 298.239136,714.317993 298.575012,713.239685 
	C298.858887,713.763123 298.927124,714.523804 298.916351,715.660828 
z"/>
<path fill="#D4EBED" opacity="1.000000" stroke="none" 
	d="
M298.601562,708.153992 
	C298.846466,708.441406 298.907471,708.892700 298.879639,709.676880 
	C298.666412,709.445801 298.542053,708.881775 298.601562,708.153992 
z"/>
<path fill="#D4EBED" opacity="1.000000" stroke="none" 
	d="
M298.585876,689.154419 
	C298.831421,689.442322 298.893158,689.893494 298.864624,690.677368 
	C298.650208,690.445923 298.526123,689.881836 298.585876,689.154419 
z"/>
<path fill="#D4EBED" opacity="1.000000" stroke="none" 
	d="
M298.582977,617.154297 
	C298.828522,617.442261 298.890198,617.893188 298.861450,618.676636 
	C298.647064,618.445190 298.523071,617.881226 298.582977,617.154297 
z"/>
<path fill="#D4EBED" opacity="1.000000" stroke="none" 
	d="
M298.633728,646.083801 
	C298.822784,646.155396 298.873322,646.327759 298.847595,646.758667 
	C298.679291,646.739624 298.587219,646.462097 298.633728,646.083801 
z"/>
<path fill="#D4EBED" opacity="1.000000" stroke="none" 
	d="
M298.637268,607.083923 
	C298.825714,607.155762 298.875885,607.328247 298.848511,607.758911 
	C298.636841,607.844543 298.480774,607.683472 298.380890,607.492981 
	C298.347137,607.428528 298.455566,607.289551 298.637268,607.083923 
z"/>
<path fill="#02AE58" opacity="1.000000" stroke="none" 
	d="
M474.728271,586.271606 
	C460.754425,572.413208 447.025879,558.809692 433.315155,545.188232 
	C427.919800,539.828003 426.285126,533.423767 427.778687,525.994934 
	C429.533020,517.268982 435.703033,512.369812 444.505310,511.689178 
	C452.998718,511.032471 459.222076,513.926086 465.210724,519.934265 
	C478.842560,533.610718 493.129028,546.634766 507.441010,560.200256 
	C518.961426,548.272034 530.231323,536.536011 541.576233,524.872986 
	C557.260498,508.748932 572.945435,492.624756 588.742981,476.612030 
	C595.866333,469.391632 604.923889,467.715057 612.277527,471.844055 
	C623.201660,477.977844 625.791626,493.561920 616.907898,503.679352 
	C607.353760,514.560303 597.145203,524.870056 587.143372,535.353882 
	C565.639587,557.893860 544.145386,580.443542 522.523254,602.869690 
	C513.338135,612.396362 502.351624,612.481812 492.696075,603.424194 
	C486.743256,597.840027 480.882690,592.157532 474.728271,586.271606 
z"/>
<path fill="#0184FE" opacity="1.000000" stroke="none" 
	d="
M479.953613,391.313599 
	C506.846283,391.081879 534.139832,391.049255 561.939575,391.074951 
	C553.510437,391.298981 544.575378,391.584229 535.639587,391.605438 
	C517.211365,391.649170 498.782867,391.551971 479.953613,391.313599 
z"/>
</svg>